<svg width="38" height="41" viewBox="0 0 38 41" fill="none" xmlns="http://www.w3.org/2000/svg">
<path fill-rule="evenodd" clip-rule="evenodd" d="M17.6 0.5H20.4V7.36182C19.94 7.31337 19.4729 7.28853 19.0001 7.28853C18.5272 7.28853 18.0601 7.31337 17.6 7.36183V0.5ZM27.2481 17.3545L21.8017 20.499L20.4031 18.0733L25.8462 14.9307C26.4342 15.6527 26.9104 16.4695 27.2481 17.3545ZM27.2481 23.6455L21.8016 20.501L20.4034 22.9268L25.8462 26.0693C26.4343 25.3473 26.9104 24.5305 27.2481 23.6455ZM20.4 29.2147V22.9274H17.603L16.1982 20.501L10.752 23.6454C11.0897 24.5305 11.5658 25.3472 12.1538 26.0692L17.6 22.9249V29.2146C18.056 29.2873 18.5236 29.3251 19.0001 29.3251C19.4765 29.3251 19.9441 29.2873 20.4 29.2147ZM12.1539 14.9308L17.598 18.074L16.1989 20.4994L10.752 17.3546C11.0897 16.4695 11.5658 15.6528 12.1539 14.9308Z" fill="#A0A0A0"/>
<path d="M20.4 11.7854C19.9441 11.7127 19.4765 11.6749 19.0001 11.6749C18.5236 11.6749 18.056 11.7127 17.6 11.7854V18.0726H20.4V11.7854Z" fill="#A0A0A0"/>
<path d="M2.37949 9.28757L8.32219 12.7186C7.77347 13.4703 7.3022 14.2821 6.92012 15.1423L0.979492 11.7124L2.37949 9.28757Z" fill="#A0A0A0"/>
<path d="M6.92011 25.8577L0.979492 29.2876L2.37949 31.7124L8.32217 28.2814C7.77346 27.5297 7.30219 26.7179 6.92011 25.8577Z" fill="#A0A0A0"/>
<path d="M17.6 33.6382V40.5H20.4V33.6382C19.94 33.6867 19.4729 33.7115 19.0001 33.7115C18.5272 33.7115 18.0601 33.6867 17.6 33.6382Z" fill="#A0A0A0"/>
<path d="M35.6205 31.7124L29.6779 28.2815C30.2266 27.5298 30.6979 26.718 31.08 25.8578L37.0205 29.2876L35.6205 31.7124Z" fill="#A0A0A0"/>
<path d="M31.08 15.1422L37.0205 11.7124L35.6205 9.28756L29.6779 12.7185C30.2266 13.4702 30.6979 14.282 31.08 15.1422Z" fill="#A0A0A0"/>
</svg>
