<svg width="41" height="41" viewBox="0 0 41 41" fill="none" xmlns="http://www.w3.org/2000/svg">
<path fill-rule="evenodd" clip-rule="evenodd" d="M21.9286 0.5H19.0714V13.1506L14.3324 1.42116L11.6833 2.49147L16.5451 14.5248L7.36802 5.3477L5.34772 7.36802L14.1435 16.1638L2.74482 11.1836L1.60092 13.8018L13.6621 19.0714H0.5V21.9286H13.6621L1.60092 27.1982L2.74482 29.8164L14.1435 24.8362L5.34772 33.632L7.36802 35.6522L16.5451 26.4752L11.6833 38.5086L14.3324 39.5788L19.0714 27.8494V40.5H21.9286V27.8494L26.6676 39.5788L29.3166 38.5086L24.455 26.4752L33.632 35.6522L35.6522 33.632L26.8564 24.8362L38.2552 29.8164L39.399 27.1982L27.338 21.9286H40.5V19.0714H27.3378L39.399 13.8018L38.2552 11.1836L26.8564 16.1638L35.6522 7.368L33.632 5.3477L24.455 14.5248L29.3166 2.49147L26.6676 1.42116L21.9286 13.1506V0.5Z" fill="#141414"/>
</svg>
