<svg width="44" height="43" viewBox="0 0 44 43" fill="none" xmlns="http://www.w3.org/2000/svg">
<path id="Vector" fill-rule="evenodd" clip-rule="evenodd" d="M22 4.73C22 2.11769 19.8823 0 17.27 0H5.23C2.61769 0 0.5 2.11769 0.5 4.73V16.9247C0.5 19.537 2.61769 21.6546 5.23 21.6546H17.27C19.8823 21.6546 22 23.7723 22 26.3846V38.27C22 40.8823 24.1178 43 26.73 43H38.77C41.3823 43 43.5 40.8823 43.5 38.27V26.0752C43.5 23.4629 41.3823 21.3453 38.77 21.3453H26.73C24.1178 21.3453 22 19.2276 22 16.6153V4.73Z" fill="#E4FF00"/>
</svg>
